<svg width="24" height="24" viewBox="0 0 24 24" fill="none" xmlns="http://www.w3.org/2000/svg">
<g clip-path="url(#clip0_112_46)">
<rect width="24" height="24" rx="8" fill="white"/>
<g filter="url(#filter0_ddi_112_46)">
<path d="M5.4375 13.3125C5.19589 13.3125 5 13.5084 5 13.75C5 13.9916 5.19589 14.1875 5.4375 14.1875H15.7341C15.5852 14.4449 15.5 14.7437 15.5 15.0625C15.5 16.029 16.2835 16.8125 17.25 16.8125C18.2165 16.8125 19 16.029 19 15.0625C19 14.096 18.2165 13.3125 17.25 13.3125H5.4375Z" fill="#C01B3C"/>
<path d="M14.9558 11.935C14.8963 12.1671 15.0366 12.4074 15.2753 12.4279C15.7065 12.4649 16.1426 12.3949 16.5438 12.2211C17.0784 11.9894 17.5208 11.5864 17.8012 11.0755C18.0815 10.5647 18.184 9.97512 18.0923 9.39966C18.0007 8.8242 17.7202 8.29559 17.295 7.89713C16.8698 7.49867 16.3241 7.25301 15.7439 7.19886C15.1637 7.14471 14.582 7.28515 14.0905 7.59805C13.5989 7.91094 13.2254 8.37851 13.0288 8.92707C12.8814 9.3387 12.8398 9.77837 12.9047 10.2063C12.9406 10.4431 13.1895 10.5675 13.4172 10.4931C13.645 10.4187 13.7634 10.1726 13.7469 9.93359C13.7303 9.6929 13.7633 9.44979 13.8457 9.21975C13.9773 8.85252 14.2273 8.53951 14.5564 8.33004C14.8855 8.12057 15.2749 8.02655 15.6633 8.0628C16.0517 8.09905 16.417 8.26351 16.7017 8.53026C16.9863 8.79701 17.1741 9.15088 17.2354 9.53612C17.2968 9.92136 17.2282 10.3161 17.0405 10.658C16.8528 11 16.5567 11.2698 16.1987 11.4249C15.9745 11.5221 15.7341 11.5708 15.4928 11.5698C15.2532 11.5688 15.0153 11.7029 14.9558 11.935Z" fill="#C01B3C"/>
<path d="M6.75 12C6.75 11.7584 6.94588 11.5625 7.1875 11.5625H15.5V12.4375H7.1875C6.94588 12.4375 6.75 12.2416 6.75 12Z" fill="#C01B3C"/>
<path d="M7.625 15.5C7.625 15.2584 7.82088 15.0625 8.0625 15.0625H12.4375C12.6791 15.0625 12.875 15.2584 12.875 15.5C12.875 15.7416 12.6791 15.9375 12.4375 15.9375H8.0625C7.82088 15.9375 7.625 15.7416 7.625 15.5Z" fill="#C01B3C"/>
<path d="M10.6875 10.6875C11.4124 10.6875 12 10.0999 12 9.375C12 8.65012 11.4124 8.0625 10.6875 8.0625C9.96262 8.0625 9.375 8.65012 9.375 9.375C9.375 9.52841 9.40128 9.67565 9.44966 9.8125H5.4375C5.19589 9.8125 5 10.0084 5 10.25C5 10.4916 5.19589 10.6875 5.4375 10.6875H10.6875Z" fill="#C01B3C"/>
</g>
</g>
<defs>
<filter id="filter0_ddi_112_46" x="-0.25" y="5.4375" width="24.5" height="20.125" filterUnits="userSpaceOnUse" color-interpolation-filters="sRGB">
<feFlood flood-opacity="0" result="BackgroundImageFix"/>
<feColorMatrix in="SourceAlpha" type="matrix" values="0 0 0 0 0 0 0 0 0 0 0 0 0 0 0 0 0 0 127 0" result="hardAlpha"/>
<feOffset/>
<feGaussianBlur stdDeviation="0.875"/>
<feComposite in2="hardAlpha" operator="out"/>
<feColorMatrix type="matrix" values="0 0 0 0 0.717647 0 0 0 0 0.0941176 0 0 0 0 0.203922 0 0 0 0.4 0"/>
<feBlend mode="normal" in2="BackgroundImageFix" result="effect1_dropShadow_112_46"/>
<feColorMatrix in="SourceAlpha" type="matrix" values="0 0 0 0 0 0 0 0 0 0 0 0 0 0 0 0 0 0 127 0" result="hardAlpha"/>
<feOffset dy="3.5"/>
<feGaussianBlur stdDeviation="2.625"/>
<feComposite in2="hardAlpha" operator="out"/>
<feColorMatrix type="matrix" values="0 0 0 0 0.752941 0 0 0 0 0.105882 0 0 0 0 0.235294 0 0 0 0.38 0"/>
<feBlend mode="normal" in2="effect1_dropShadow_112_46" result="effect2_dropShadow_112_46"/>
<feBlend mode="normal" in="SourceGraphic" in2="effect2_dropShadow_112_46" result="shape"/>
<feColorMatrix in="SourceAlpha" type="matrix" values="0 0 0 0 0 0 0 0 0 0 0 0 0 0 0 0 0 0 127 0" result="hardAlpha"/>
<feOffset dx="-0.875" dy="-0.875"/>
<feGaussianBlur stdDeviation="0.4375"/>
<feComposite in2="hardAlpha" operator="arithmetic" k2="-1" k3="1"/>
<feColorMatrix type="matrix" values="0 0 0 0 0 0 0 0 0 0 0 0 0 0 0 0 0 0 0.25 0"/>
<feBlend mode="normal" in2="shape" result="effect3_innerShadow_112_46"/>
</filter>
<clipPath id="clip0_112_46">
<rect width="24" height="24" rx="8" fill="white"/>
</clipPath>
</defs>
</svg>
